<svg xmlns="http://www.w3.org/2000/svg" viewBox="0 0 800 1000"><rect width="800" height="1000" fill="#101010"/><rect x="22" y="22" width="756" height="956" rx="20" fill="none" stroke="#c8a457" stroke-width="5"/><text x="400" y="103" fill="#e6c371" text-anchor="middle" font-family="Arial" font-weight="bold" font-size="57">ADEGA MAROMBA</text><text x="400" y="152" fill="white" text-anchor="middle" font-family="Arial" font-size="28">SUCO • 500 ml</text><circle cx="400" cy="467" r="230" fill="#f99b16" opacity=".17"/><g><rect x="342" y="231" width="116" height="55" rx="14" fill="#d5bf9a"/><path d="M340 278h120v65q57 40 57 105v244q0 35-36 35H319q-36 0-36-35V448q0-65 57-105z" fill="#f99b16" stroke="#f2dfae" stroke-width="12"/><path d="M305 433h190v236H305z" fill="#171717" stroke="#dab55b" stroke-width="4"/><text x="400" y="506" text-anchor="middle" font-family="Arial" font-size="27" font-weight="bold" fill="#f2d58c">ADEGA</text><text x="400" y="543" text-anchor="middle" font-family="Arial" font-size="27" font-weight="bold" fill="#f2d58c">MAROMBA</text><text x="400" y="612" text-anchor="middle" font-family="Arial" font-size="30" fill="#ffffff">500 ml</text></g><rect x="55" y="798" width="690" height="115" rx="17" fill="#f99b16"/><text x="400" y="865" text-anchor="middle" font-family="Arial" font-weight="bold" font-size="52" fill="#101010">LARANJA</text><text x="400" y="949" text-anchor="middle" font-family="Arial" font-size="22" fill="#e7c677">SUCO ADEGA MAROMBA</text></svg>